<svg width="211" height="144" viewBox="0 0 211 144" fill="none" xmlns="http://www.w3.org/2000/svg">
<g clip-path="url(#clip0_109_75)">
<path d="M51.512 144H0L71.9644 72.1879L23.8357 0.0507812H74.8093C75.6129 0.0527101 76.4038 0.251981 77.1124 0.631096C77.8211 1.01021 78.4257 1.55757 78.8733 2.22506L123.304 68.7132C123.934 69.6556 124.218 70.7877 124.107 71.9161C123.996 73.0445 123.496 74.0994 122.694 74.9007L54.9868 142.567C54.0621 143.483 52.8136 143.998 51.512 144Z" fill="url(#paint0_linear_109_75)"/>
<path d="M138.249 144H86.7272L158.742 72.1879L110.614 0.0507812H161.536C162.34 0.0509317 163.132 0.249437 163.841 0.628709C164.55 1.00798 165.154 1.5563 165.601 2.22506L210.041 68.7132C210.672 69.6556 210.955 70.7877 210.844 71.9161C210.733 73.0445 210.234 74.0994 209.431 74.9007L141.714 142.567C140.794 143.485 139.548 144 138.249 144Z" fill="url(#paint1_linear_109_75)"/>
</g>
<defs>
<linearGradient id="paint0_linear_109_75" x1="-36.0991" y1="72.0051" x2="217.742" y2="72.0051" gradientUnits="userSpaceOnUse">
<stop stop-color="#5E9AD3"/>
<stop offset="1" stop-color="#2060AD"/>
</linearGradient>
<linearGradient id="paint1_linear_109_75" x1="-36.0991" y1="72.0051" x2="217.742" y2="72.0051" gradientUnits="userSpaceOnUse">
<stop stop-color="#5E9AD3"/>
<stop offset="1" stop-color="#2060AD"/>
</linearGradient>
<clipPath id="clip0_109_75">
<rect width="210.884" height="144" fill="white"/>
</clipPath>
</defs>
</svg>
